<svg xmlns="http://www.w3.org/2000/svg" width="980" height="78" viewBox="0 0 980 78" role="img" aria-label="Tech strip">
  <defs>
    <linearGradient id="s1" x1="0" x2="1">
      <stop offset="0" stop-color="#0ea5e9"/>
      <stop offset="1" stop-color="#6b7280"/>
    </linearGradient>
  </defs>

  <rect width="100%" height="100%" rx="10" fill="#0b1220"/>
  <g transform="translate(18,12)" font-family="Segoe UI, Roboto, system-ui" fill="#e6eef8">
    <g transform="translate(0,0)">
      <rect width="160" height="54" rx="8" fill="#071428" stroke="url(#s1)" stroke-width="1.6"/>
      <text x="52" y="34" font-size="14" font-weight="700">TypeScript</text>
      <rect x="12" y="12" width="28" height="28" rx="6" fill="#0ea5e9"/>
      <text x="22" y="32" font-size="12" fill="#071428" font-weight="700">TS</text>
    </g>

    <g transform="translate(184,0)">
      <rect width="160" height="54" rx="8" fill="#071428" stroke="#334155" stroke-width="1.2"/>
      <text x="52" y="34" font-size="14" font-weight="700">React</text>
      <circle cx="26" cy="26" r="14" fill="#60a5fa"/>
      <text x="20" y="30" font-size="12" fill="#071428" font-weight="700">R</text>
    </g>

    <g transform="translate(368,0)">
      <rect width="160" height="54" rx="8" fill="#071428" stroke="#334155" stroke-width="1.2"/>
      <text x="52" y="34" font-size="14" font-weight="700">Node.js</text>
      <rect x="12" y="12" width="28" height="28" rx="6" fill="#94a3b8"/>
      <text x="18" y="30" font-size="10" fill="#071428" font-weight="700">JS</text>
    </g>

    <g transform="translate(552,0)">
      <rect width="160" height="54" rx="8" fill="#071428" stroke="#334155" stroke-width="1.2"/>
      <text x="52" y="34" font-size="14" font-weight="700">Docker / CI</text>
    </g>

    <g transform="translate(736,0)">
      <rect width="200" height="54" rx="8" fill="#071428" stroke="#334155" stroke-width="1.2"/>
      <text x="64" y="34" font-size="14" font-weight="700">Testing · Performance · UX</text>
    </g>
  </g>
</svg>